<svg width="28" height="28" viewBox="0 0 28 28" fill="none" xmlns="http://www.w3.org/2000/svg">
<mask id="mask0_607_678" style="mask-type:alpha" maskUnits="userSpaceOnUse" x="0" y="0" width="28" height="28">
<rect x="28" y="28" width="28" height="28" transform="rotate(-180 28 28)" fill="#D9D9D9"/>
</mask>
<g mask="url(#mask0_607_678)">
<path d="M11.9516 14L20.3897 22.4381C20.6021 22.6505 20.7102 22.9119 20.7139 23.2222C20.7177 23.5326 20.6133 23.794 20.401 24.0064C20.1886 24.2188 19.9272 24.325 19.6168 24.325C19.3065 24.325 19.0451 24.2188 18.8327 24.0064L10.1343 15.3192C9.94287 15.1277 9.80601 14.9206 9.72374 14.6977C9.64149 14.4749 9.60036 14.2423 9.60036 14C9.60036 13.7577 9.64149 13.5251 9.72374 13.3022C9.80601 13.0794 9.94287 12.8722 10.1343 12.6808L18.8215 3.9936C19.0339 3.78121 19.2971 3.67313 19.6112 3.66938C19.9253 3.66565 20.1886 3.76998 20.401 3.98237C20.6133 4.19476 20.7195 4.45613 20.7195 4.76648C20.7195 5.07684 20.6133 5.33821 20.401 5.5506L11.9516 14Z" fill="#0F0F0F"/>
</g>
</svg>
