<svg width="28" height="28" viewBox="0 0 28 28" fill="none" xmlns="http://www.w3.org/2000/svg">
<mask id="mask0_607_627" style="mask-type:alpha" maskUnits="userSpaceOnUse" x="0" y="0" width="28" height="28">
<rect width="28" height="28" fill="#D9D9D9"/>
</mask>
<g mask="url(#mask0_607_627)">
<path d="M16.0484 14L7.61027 5.56187C7.39788 5.34948 7.28981 5.08811 7.28606 4.77775C7.28232 4.46738 7.38665 4.20601 7.59904 3.99364C7.81144 3.78125 8.07281 3.67505 8.38316 3.67505C8.69351 3.67505 8.95489 3.78125 9.16728 3.99364L17.8657 12.6808C18.0571 12.8723 18.194 13.0794 18.2763 13.3023C18.3585 13.5251 18.3996 13.7577 18.3996 14C18.3996 14.2423 18.3585 14.4749 18.2763 14.6978C18.194 14.9206 18.0571 15.1278 17.8657 15.3192L9.17851 24.0064C8.96611 24.2188 8.70287 24.3269 8.38876 24.3306C8.07467 24.3344 7.81144 24.23 7.59904 24.0176C7.38665 23.8052 7.28046 23.5439 7.28046 23.2335C7.28046 22.9232 7.38665 22.6618 7.59904 22.4494L16.0484 14Z" fill="#0F0F0F"/>
</g>
</svg>
