<svg width="12" height="7" viewBox="0 0 12 7" fill="none" xmlns="http://www.w3.org/2000/svg">
<path d="M5.99482 6.01148C5.88764 6.01148 5.78796 5.99225 5.6958 5.95378C5.60361 5.91531 5.51906 5.85762 5.44215 5.78071L0.806371 1.14493C0.662271 1.00085 0.592788 0.844831 0.597921 0.676881C0.603038 0.508931 0.678038 0.352522 0.822921 0.207655C0.967788 0.0627887 1.12259 -0.00964355 1.28732 -0.00964355C1.45205 -0.00964355 1.60685 0.0627887 1.75172 0.207655L5.99982 4.48076L10.2729 0.207655C10.4114 0.0692053 10.5646 0.00253867 10.7325 0.00765534C10.9005 0.0127887 11.0569 0.0877887 11.2017 0.232655C11.3466 0.377522 11.419 0.532331 11.419 0.697081C11.419 0.861814 11.3438 1.01896 11.1933 1.16853L6.5575 5.78071C6.47391 5.85762 6.38603 5.91531 6.29385 5.95378C6.20168 5.99225 6.102 6.01148 5.99482 6.01148Z" fill="#0F0F0F"/>
</svg>
