<svg width="32" height="32" viewBox="0 0 32 32" fill="none" xmlns="http://www.w3.org/2000/svg">
<mask id="mask0_763_725" style="mask-type:alpha" maskUnits="userSpaceOnUse" x="0" y="0" width="32" height="32">
<rect width="32" height="32" fill="#D9D9D9"/>
</mask>
<g mask="url(#mask0_763_725)">
<path d="M6.01032 26.5335C5.4101 26.5335 4.90276 26.3262 4.48832 25.9118C4.07388 25.4974 3.86665 24.99 3.86665 24.3898V7.61046C3.86665 7.01024 4.07388 6.50291 4.48832 6.08846C4.90276 5.67402 5.4101 5.4668 6.01032 5.4668H25.9897C26.5899 5.4668 27.0972 5.67402 27.5117 6.08846C27.9261 6.50291 28.1333 7.01024 28.1333 7.61046V24.3898C28.1333 24.99 27.9261 25.4974 27.5117 25.9118C27.0972 26.3262 26.5899 26.5335 25.9897 26.5335H6.01032ZM6.01032 24.8001H25.9897C26.0923 24.8001 26.1863 24.7574 26.2717 24.6718C26.3572 24.5865 26.4 24.4925 26.4 24.3898V7.61046C26.4 7.5078 26.3572 7.4138 26.2717 7.32846C26.1863 7.24291 26.0923 7.20013 25.9897 7.20013H6.01032C5.90765 7.20013 5.81365 7.24291 5.72832 7.32846C5.64276 7.4138 5.59999 7.5078 5.59999 7.61046V24.3898C5.59999 24.4925 5.64276 24.5865 5.72832 24.6718C5.81365 24.7574 5.90765 24.8001 6.01032 24.8001ZM8.51299 21.0871H23.487V19.3541H8.51299V21.0871ZM8.51299 16.4668H13.7027V10.1131H8.51299V16.4668ZM16.359 16.4668H23.487V14.7335H16.359V16.4668ZM16.359 11.8461H23.487V10.1131H16.359V11.8461Z" fill="#9DA3AF"/>
</g>
</svg>
