<svg width="12" height="10" viewBox="0 0 12 10" fill="none" xmlns="http://www.w3.org/2000/svg">
<path d="M3.87499 7.69037L10.6385 0.951917C10.7705 0.819867 10.9179 0.7564 11.0808 0.761517C11.2436 0.76665 11.3942 0.838451 11.5327 0.976917C11.6711 1.11537 11.7404 1.2644 11.7404 1.42402C11.7404 1.58362 11.6711 1.73265 11.5327 1.87112L4.45766 8.94609C4.29356 9.11019 4.1035 9.19224 3.88749 9.19224C3.67147 9.19224 3.48141 9.11019 3.31731 8.94609L0.46731 6.09612C0.33526 5.96407 0.266027 5.81663 0.25961 5.65382C0.25321 5.491 0.319235 5.34037 0.457685 5.20192C0.596152 5.06345 0.745185 4.99422 0.904785 4.99422C1.0644 4.99422 1.21343 5.06345 1.35188 5.20192L3.87499 7.69037Z" fill="#0F0F0F"/>
</svg>
