<svg width="20" height="20" viewBox="0 0 20 20" fill="none" xmlns="http://www.w3.org/2000/svg">
<g id="icon">
<mask id="mask0_412_162" style="mask-type:alpha" maskUnits="userSpaceOnUse" x="0" y="0" width="20" height="20">
<rect id="Bounding box" width="20" height="20" fill="#D9D9D9"/>
</mask>
<g mask="url(#mask0_412_162)">
<path id="expand_more" d="M9.99581 12.5096C9.90649 12.5096 9.82342 12.4936 9.74662 12.4615C9.6698 12.4295 9.59934 12.3814 9.53524 12.3173L5.6721 8.45415C5.55201 8.33408 5.49411 8.20407 5.49839 8.06411C5.50265 7.92415 5.56515 7.79381 5.68589 7.67309C5.80661 7.55236 5.93561 7.492 6.07289 7.492C6.21017 7.492 6.33917 7.55236 6.45989 7.67309L9.99997 11.234L13.5609 7.67309C13.6763 7.55771 13.8039 7.50216 13.9439 7.50642C14.0838 7.5107 14.2142 7.5732 14.3349 7.69392C14.4556 7.81464 14.516 7.94365 14.516 8.08094C14.516 8.21822 14.4533 8.34918 14.3278 8.47382L10.4647 12.3173C10.395 12.3814 10.3218 12.4295 10.245 12.4615C10.1682 12.4936 10.0851 12.5096 9.99581 12.5096Z" fill="#9DA3AF"/>
</g>
</g>
</svg>
