<svg width="24" height="24" viewBox="0 0 24 24" fill="none" xmlns="http://www.w3.org/2000/svg">
<mask id="mask0_1302_698" style="mask-type:alpha" maskUnits="userSpaceOnUse" x="0" y="0" width="24" height="24">
<rect width="24" height="24" fill="#D9D9D9"/>
</mask>
<g mask="url(#mask0_1302_698)">
<path d="M11.9905 19.1345C11.793 19.1345 11.6029 19.1003 11.4203 19.0318C11.2376 18.9631 11.0642 18.8551 10.9 18.7078L9.71353 17.627C7.89052 16.0103 6.29919 14.4472 4.93952 12.9375C3.57986 11.4278 2.90002 9.832 2.90002 8.15C2.90002 6.83083 3.35352 5.726 4.26052 4.8355C5.16769 3.94517 6.28919 3.5 7.62502 3.5C8.39802 3.5 9.16536 3.67758 9.92702 4.03275C10.6885 4.38792 11.3795 4.99175 12 5.84425C12.6539 4.99175 13.3532 4.38792 14.098 4.03275C14.843 3.67758 15.602 3.5 16.375 3.5C17.7109 3.5 18.8324 3.94517 19.7395 4.8355C20.6465 5.726 21.1 6.83083 21.1 8.15C21.1 9.85133 20.4042 11.4616 19.0125 12.9808C17.6209 14.4999 16.0455 16.0454 14.2865 17.6173L13.0903 18.7078C12.9263 18.8551 12.7514 18.9631 12.5655 19.0318C12.3795 19.1003 12.1879 19.1345 11.9905 19.1345Z" fill="#FA3434"/>
</g>
</svg>
