<svg width="10" height="6" viewBox="0 0 10 6" fill="none" xmlns="http://www.w3.org/2000/svg">
<path d="M4.99581 5.5096C4.90649 5.5096 4.82342 5.49358 4.74662 5.46152C4.6698 5.42947 4.59934 5.38139 4.53524 5.31729L0.672098 1.45415C0.552014 1.33408 0.494112 1.20406 0.49839 1.0641C0.502654 0.924146 0.565154 0.793805 0.68589 0.673083C0.806612 0.552361 0.935612 0.492001 1.07289 0.492001C1.21017 0.492001 1.33917 0.552361 1.45989 0.673083L4.99997 4.234L8.56089 0.673083C8.67626 0.557708 8.80393 0.502152 8.94389 0.506416C9.08383 0.510694 9.21417 0.573194 9.33489 0.693916C9.45563 0.814639 9.51599 0.943646 9.51599 1.08094C9.51599 1.21822 9.45328 1.34917 9.32785 1.47381L5.4647 5.31729C5.39505 5.38139 5.32181 5.42947 5.24499 5.46152C5.16819 5.49358 5.08512 5.5096 4.99581 5.5096Z" fill="white"/>
</svg>
