<svg width="20" height="20" viewBox="0 0 20 20" fill="none" xmlns="http://www.w3.org/2000/svg">
<path d="M7.62747 4.5065C8.68331 2.61317 9.2108 1.6665 9.99997 1.6665C10.7891 1.6665 11.3166 2.61317 12.3725 4.5065L12.6458 4.9965C12.9458 5.53484 13.0958 5.804 13.3291 5.9815C13.5625 6.159 13.8541 6.22484 14.4375 6.3565L14.9675 6.4765C17.0175 6.94067 18.0416 7.17234 18.2858 7.9565C18.5291 8.73984 17.8308 9.55734 16.4333 11.1915L16.0716 11.614C15.675 12.0782 15.4758 12.3107 15.3866 12.5973C15.2975 12.8848 15.3275 13.1948 15.3875 13.814L15.4425 14.3782C15.6533 16.559 15.7591 17.649 15.1208 18.1332C14.4825 18.6182 13.5225 18.1757 11.6041 17.2923L11.1066 17.064C10.5616 16.8123 10.2891 16.6873 9.99997 16.6873C9.7108 16.6873 9.4383 16.8123 8.8933 17.064L8.39664 17.2923C6.47747 18.1757 5.51747 18.6173 4.87997 18.134C4.24081 17.649 4.34664 16.559 4.55747 14.3782L4.61247 13.8148C4.67247 13.1948 4.70247 12.8848 4.61247 12.5982C4.52414 12.3107 4.32497 12.0782 3.92831 11.6148L3.56664 11.1915C2.16914 9.55817 1.47081 8.74067 1.71414 7.9565C1.95831 7.17234 2.98331 6.93984 5.03331 6.4765L5.56331 6.3565C6.14581 6.22484 6.43664 6.159 6.67081 5.9815C6.90414 5.804 7.05414 5.53484 7.35414 4.9965L7.62747 4.5065Z" fill="#03C6CE" stroke="#03C6CE" stroke-width="2"/>
</svg>
