<svg width="24" height="24" viewBox="0 0 24 24" fill="none" xmlns="http://www.w3.org/2000/svg">
<mask id="mask0_467_683" style="mask-type:alpha" maskUnits="userSpaceOnUse" x="0" y="0" width="24" height="24">
<rect width="24" height="24" fill="#D9D9D9"/>
</mask>
<g mask="url(#mask0_467_683)">
<path d="M11.9904 19.1346C11.7929 19.1346 11.6029 19.1003 11.4202 19.0317C11.2375 18.9631 11.0641 18.8551 10.9 18.7077L9.7135 17.6269C7.89042 16.0102 6.29907 14.4471 4.93945 12.9375C3.57983 11.4279 2.90002 9.83204 2.90002 8.15001C2.90002 6.83049 3.3523 5.72561 4.25685 4.83538C5.1614 3.94515 6.28412 3.50003 7.625 3.50003C8.40137 3.50003 9.16949 3.6776 9.92937 4.03273C10.6893 4.38787 11.3795 4.99171 12 5.84428C12.6538 4.99171 13.3545 4.38787 14.1021 4.03273C14.8496 3.6776 15.6046 3.50003 16.367 3.50003C17.7082 3.50003 18.8324 3.94515 19.7394 4.83538C20.6465 5.72561 21.1 6.83049 21.1 8.15001C21.1 9.85127 20.4041 11.4615 19.0125 12.9808C17.6208 14.5 16.0455 16.0455 14.2865 17.6173L13.0904 18.7077C12.9263 18.8551 12.7513 18.9631 12.5654 19.0317C12.3795 19.1003 12.1878 19.1346 11.9904 19.1346ZM11.3808 7.23848C10.9231 6.41411 10.3702 5.80161 9.72212 5.40098C9.07404 5.00033 8.375 4.80001 7.625 4.80001C6.64643 4.80001 5.83096 5.11667 5.17857 5.75001C4.52619 6.38334 4.2 7.18661 4.2 8.15983C4.2 8.93918 4.45032 9.74584 4.95095 10.5798C5.45158 11.4138 6.0801 12.2509 6.8365 13.0913C7.59292 13.9317 8.41439 14.748 9.30092 15.5404C10.1875 16.3327 11.0198 17.075 11.798 17.7673C11.8558 17.8186 11.9231 17.8442 12 17.8442C12.0769 17.8442 12.1442 17.8186 12.202 17.7673C12.9802 17.075 13.8125 16.3327 14.6991 15.5404C15.5856 14.748 16.4071 13.9317 17.1635 13.0913C17.9199 12.2509 18.5484 11.4138 19.0491 10.5798C19.5497 9.74584 19.8 8.93918 19.8 8.15983C19.8 7.18661 19.4738 6.38334 18.8214 5.75001C18.169 5.11667 17.3536 4.80001 16.375 4.80001C15.625 4.80001 14.9218 5.00033 14.2654 5.40098C13.609 5.80161 13.0519 6.41411 12.5942 7.23848C12.5429 7.36668 12.4611 7.45867 12.3488 7.51446C12.2365 7.57022 12.1198 7.59811 11.9988 7.59811C11.8778 7.59811 11.7574 7.57022 11.6375 7.51446C11.5176 7.45867 11.4321 7.36668 11.3808 7.23848Z" fill="#9DA3AF"/>
</g>
</svg>
