<svg width="24" height="24" viewBox="0 0 24 24" fill="none" xmlns="http://www.w3.org/2000/svg">
<mask id="mask0_852_860" style="mask-type:alpha" maskUnits="userSpaceOnUse" x="0" y="0" width="24" height="24">
<rect width="24" height="24" fill="#D9D9D9"/>
</mask>
<g mask="url(#mask0_852_860)">
<path d="M11.35 12.65H7.15003C6.96586 12.65 6.81149 12.5882 6.68691 12.4645C6.56232 12.3409 6.50003 12.1877 6.50003 12.0049C6.50003 11.8222 6.56232 11.6673 6.68691 11.5404C6.81149 11.4135 6.96586 11.35 7.15003 11.35H11.35V7.15002C11.35 6.96586 11.4118 6.81148 11.5355 6.6869C11.6591 6.56232 11.8123 6.50002 11.9951 6.50002C12.1778 6.50002 12.3327 6.56232 12.4596 6.6869C12.5865 6.81148 12.65 6.96586 12.65 7.15002V11.35H16.85C17.0341 11.35 17.1885 11.4118 17.3131 11.5355C17.4377 11.6591 17.5 11.8123 17.5 11.9951C17.5 12.1778 17.4377 12.3327 17.3131 12.4596C17.1885 12.5865 17.0341 12.65 16.85 12.65H12.65V16.85C12.65 17.0341 12.5882 17.1885 12.4645 17.3131C12.3409 17.4377 12.1877 17.5 12.0049 17.5C11.8222 17.5 11.6673 17.4377 11.5404 17.3131C11.4135 17.1885 11.35 17.0341 11.35 16.85V12.65Z" fill="#676F7E"/>
</g>
</svg>
