<svg width="32" height="32" viewBox="0 0 32 32" fill="none" xmlns="http://www.w3.org/2000/svg">
<mask id="mask0_763_713" style="mask-type:alpha" maskUnits="userSpaceOnUse" x="0" y="0" width="32" height="32">
<rect width="32" height="32" fill="#D9D9D9"/>
</mask>
<g mask="url(#mask0_763_713)">
<path d="M8.13065 22.7564C9.33065 21.9377 10.582 21.3291 11.8847 20.9307C13.1871 20.5325 14.5589 20.3334 16 20.3334C17.4411 20.3334 18.8129 20.5325 20.1153 20.9307C21.418 21.3291 22.6693 21.9377 23.8693 22.7564C24.6982 21.8453 25.3272 20.8128 25.7563 19.659C26.1854 18.5053 26.4 17.2856 26.4 16C26.4 13.1185 25.3863 10.6647 23.359 8.6387C21.3317 6.61292 18.8761 5.60003 15.9923 5.60003C13.1085 5.60003 10.6555 6.61292 8.63332 8.6387C6.6111 10.6647 5.59999 13.1185 5.59999 16C5.59999 17.2856 5.81454 18.5053 6.24365 19.659C6.67276 20.8128 7.30176 21.8453 8.13065 22.7564ZM16.0003 18.0667C14.7608 18.0667 13.7064 17.6323 12.8373 16.7634C11.968 15.8943 11.5333 14.8399 11.5333 13.6004C11.5333 12.3608 11.9678 11.3065 12.8367 10.4374C13.7058 9.56803 14.7601 9.13337 15.9997 9.13337C17.2392 9.13337 18.2935 9.56781 19.1627 10.4367C20.032 11.3058 20.4667 12.3601 20.4667 13.5997C20.4667 14.8393 20.0322 15.8936 19.1633 16.7627C18.2942 17.632 17.2399 18.0667 16.0003 18.0667ZM16.0093 28.1334C14.3331 28.1334 12.7578 27.8193 11.2833 27.191C9.80888 26.5628 8.51832 25.6953 7.41165 24.5884C6.30476 23.4817 5.43721 22.1916 4.80899 20.718C4.18076 19.2447 3.86665 17.6669 3.86665 15.9847C3.86665 14.3027 4.18076 12.73 4.80899 11.2667C5.43721 9.80337 6.30476 8.51836 7.41165 7.4117C8.51832 6.30481 9.80843 5.43726 11.282 4.80903C12.7553 4.18081 14.3331 3.8667 16.0153 3.8667C17.6973 3.8667 19.27 4.18081 20.7333 4.80903C22.1967 5.43726 23.4817 6.30481 24.5883 7.4117C25.6952 8.51836 26.5628 9.80581 27.191 11.274C27.8192 12.7425 28.1333 14.3147 28.1333 15.9907C28.1333 17.6669 27.8192 19.2423 27.191 20.7167C26.5628 22.1911 25.6952 23.4817 24.5883 24.5884C23.4817 25.6953 22.1942 26.5628 20.726 27.191C19.2575 27.8193 17.6853 28.1334 16.0093 28.1334ZM16 26.4C17.1811 26.4 18.3413 26.1954 19.4807 25.786C20.62 25.3765 21.6563 24.7906 22.5897 24.0284C21.6341 23.4026 20.5995 22.9193 19.486 22.5784C18.3722 22.2373 17.2102 22.0667 16 22.0667C14.7898 22.0667 13.6201 22.2295 12.491 22.555C11.3619 22.8808 10.335 23.3719 9.41032 24.0284C10.3437 24.7906 11.38 25.3765 12.5193 25.786C13.6587 26.1954 14.8189 26.4 16 26.4ZM16 16.3334C16.7522 16.3334 17.3958 16.0658 17.9307 15.5307C18.4658 14.9958 18.7333 14.3523 18.7333 13.6C18.7333 12.8478 18.4658 12.2043 17.9307 11.6694C17.3958 11.1343 16.7522 10.8667 16 10.8667C15.2478 10.8667 14.6042 11.1343 14.0693 11.6694C13.5342 12.2043 13.2667 12.8478 13.2667 13.6C13.2667 14.3523 13.5342 14.9958 14.0693 15.5307C14.6042 16.0658 15.2478 16.3334 16 16.3334Z" fill="#9DA3AF"/>
</g>
</svg>
