<svg width="32" height="32" viewBox="0 0 32 32" fill="none" xmlns="http://www.w3.org/2000/svg">
<mask id="mask0_763_719" style="mask-type:alpha" maskUnits="userSpaceOnUse" x="0" y="0" width="32" height="32">
<rect width="32" height="32" fill="#D9D9D9"/>
</mask>
<g mask="url(#mask0_763_719)">
<path d="M7.61032 24.8001H24.3897C24.5094 24.8001 24.6078 24.7617 24.6847 24.6848C24.7615 24.6079 24.8 24.5096 24.8 24.3898V12.8591L19.141 7.20013H7.61032C7.49054 7.20013 7.39221 7.23858 7.31532 7.31546C7.23843 7.39235 7.19999 7.49069 7.19999 7.61046V24.3898C7.19999 24.5096 7.23843 24.6079 7.31532 24.6848C7.39221 24.7617 7.49054 24.8001 7.61032 24.8001ZM7.61032 26.5335C7.01876 26.5335 6.51354 26.3241 6.09465 25.9055C5.67599 25.4866 5.46665 24.9814 5.46665 24.3898V7.61046C5.46665 7.01891 5.67599 6.51369 6.09465 6.0948C6.51354 5.67613 7.01876 5.4668 7.61032 5.4668H19.859L26.5333 12.1411V24.3898C26.5333 24.9814 26.324 25.4866 25.9053 25.9055C25.4864 26.3241 24.9812 26.5335 24.3897 26.5335H7.61032ZM9.93332 21.7335H22.0667V20.0001H9.93332V21.7335ZM9.93332 17.2668H22.0667V15.5335H9.93332V17.2668ZM9.93332 12.8001H18.687V11.0668H9.93332V12.8001Z" fill="#9DA3AF"/>
</g>
</svg>
