<svg width="30" height="30" viewBox="0 0 30 30" fill="none" xmlns="http://www.w3.org/2000/svg">
<path d="M11.204 6.2105C12.8934 3.18117 13.7374 1.6665 15 1.6665C16.2627 1.6665 17.1067 3.18117 18.796 6.2105L19.2334 6.9945C19.7134 7.85584 19.9534 8.2865 20.3267 8.5705C20.7 8.8545 21.1667 8.95984 22.1 9.1705L22.948 9.3625C26.228 10.1052 27.8667 10.4758 28.2574 11.7305C28.6467 12.9838 27.5294 14.2918 25.2934 16.9065L24.7147 17.5825C24.08 18.3252 23.7614 18.6972 23.6187 19.1558C23.476 19.6158 23.524 20.1118 23.62 21.1025L23.708 22.0052C24.0454 25.4945 24.2147 27.2385 23.1934 28.0132C22.172 28.7892 20.636 28.0812 17.5667 26.6678L16.7707 26.3025C15.8987 25.8998 15.4627 25.6998 15 25.6998C14.5374 25.6998 14.1014 25.8998 13.2294 26.3025L12.4347 26.6678C9.36403 28.0812 7.82803 28.7878 6.80803 28.0145C5.78536 27.2385 5.9547 25.4945 6.29203 22.0052L6.38003 21.1038C6.47603 20.1118 6.52403 19.6158 6.38003 19.1572C6.2387 18.6972 5.92003 18.3252 5.28536 17.5838L4.7067 16.9065C2.4707 14.2932 1.35336 12.9852 1.7427 11.7305C2.13336 10.4758 3.77336 10.1038 7.05336 9.3625L7.90136 9.1705C8.83336 8.95984 9.2987 8.8545 9.67336 8.5705C10.0467 8.2865 10.2867 7.85584 10.7667 6.9945L11.204 6.2105Z" stroke="#818898" stroke-width="2"/>
</svg>
