<svg width="24" height="24" viewBox="0 0 24 24" fill="none" xmlns="http://www.w3.org/2000/svg">
<mask id="mask0_154_658" style="mask-type:alpha" maskUnits="userSpaceOnUse" x="0" y="0" width="24" height="24">
<rect width="24" height="24" fill="#D9D9D9"/>
</mask>
<g mask="url(#mask0_154_658)">
<path d="M12 12.9288L7.72685 17.2019C7.5884 17.3404 7.43937 17.407 7.27975 17.4019C7.12015 17.3968 6.96792 17.3218 6.82305 17.1769C6.67817 17.032 6.60573 16.8772 6.60573 16.7125C6.60573 16.5478 6.67817 16.393 6.82305 16.2481L11.0711 12L6.79805 7.7269C6.65959 7.58845 6.59292 7.43525 6.59805 7.2673C6.60317 7.09937 6.67817 6.94297 6.82305 6.7981C6.96792 6.65322 7.12272 6.58078 7.28745 6.58078C7.45219 6.58078 7.60699 6.65322 7.75185 6.7981L12 11.0712L16.2731 6.7981C16.4115 6.65964 16.5647 6.5888 16.7327 6.5856C16.9006 6.58239 17.057 6.65322 17.2019 6.7981C17.3467 6.94297 17.4192 7.09777 17.4192 7.2625C17.4192 7.42724 17.3467 7.58204 17.2019 7.7269L12.9288 12L17.2019 16.2731C17.3403 16.4116 17.4112 16.5606 17.4144 16.7202C17.4176 16.8798 17.3467 17.032 17.2019 17.1769C17.057 17.3218 16.9022 17.3942 16.7375 17.3942C16.5727 17.3942 16.4179 17.3218 16.2731 17.1769L12 12.9288Z" fill="#0F0F0F"/>
</g>
</svg>
